<svg width="140" height="37" viewBox="0 0 140 37" fill="none" xmlns="http://www.w3.org/2000/svg">
<rect width="140" height="37" rx="7" fill="#121212"/>
<path d="M38.7841 14H35.9588V5.27273H38.8736C39.7287 5.27273 40.4631 5.44744 41.0767 5.79688C41.6903 6.14347 42.1605 6.64205 42.4872 7.29261C42.8168 7.94034 42.9815 8.71733 42.9815 9.62358C42.9815 10.5327 42.8153 11.3139 42.483 11.9673C42.1534 12.6207 41.6761 13.1236 41.0511 13.4759C40.4261 13.8253 39.6705 14 38.7841 14ZM37.2756 12.8494H38.7116C39.3764 12.8494 39.929 12.7244 40.3693 12.4744C40.8097 12.2216 41.1392 11.8565 41.358 11.3793C41.5767 10.8991 41.6861 10.3139 41.6861 9.62358C41.6861 8.93892 41.5767 8.35795 41.358 7.88068C41.142 7.40341 40.8196 7.04119 40.3906 6.79403C39.9616 6.54687 39.429 6.4233 38.7926 6.4233H37.2756V12.8494ZM47.2738 14.1321C46.6602 14.1321 46.1246 13.9915 45.6673 13.7102C45.2099 13.429 44.8548 13.0355 44.6019 12.5298C44.3491 12.0241 44.2227 11.4332 44.2227 10.7571C44.2227 10.0781 44.3491 9.48437 44.6019 8.97585C44.8548 8.46733 45.2099 8.07244 45.6673 7.79119C46.1246 7.50994 46.6602 7.36932 47.2738 7.36932C47.8874 7.36932 48.4229 7.50994 48.8803 7.79119C49.3377 8.07244 49.6928 8.46733 49.9457 8.97585C50.1985 9.48437 50.3249 10.0781 50.3249 10.7571C50.3249 11.4332 50.1985 12.0241 49.9457 12.5298C49.6928 13.0355 49.3377 13.429 48.8803 13.7102C48.4229 13.9915 47.8874 14.1321 47.2738 14.1321ZM47.2781 13.0625C47.6758 13.0625 48.0053 12.9574 48.2667 12.7472C48.5281 12.5369 48.7212 12.2571 48.8462 11.9077C48.9741 11.5582 49.038 11.1733 49.038 10.7528C49.038 10.3352 48.9741 9.9517 48.8462 9.60227C48.7212 9.25 48.5281 8.96733 48.2667 8.75426C48.0053 8.54119 47.6758 8.43466 47.2781 8.43466C46.8775 8.43466 46.5451 8.54119 46.2809 8.75426C46.0195 8.96733 45.8249 9.25 45.6971 9.60227C45.5721 9.9517 45.5096 10.3352 45.5096 10.7528C45.5096 11.1733 45.5721 11.5582 45.6971 11.9077C45.8249 12.2571 46.0195 12.5369 46.2809 12.7472C46.5451 12.9574 46.8775 13.0625 47.2781 13.0625ZM52.967 14L51.0408 7.45455H52.3576L53.6403 12.2614H53.7042L54.9911 7.45455H56.3079L57.5863 12.2401H57.6502L58.9244 7.45455H60.2411L58.3192 14H57.0195L55.69 9.27415H55.592L54.2624 14H52.967ZM62.7244 10.1136V14H61.4503V7.45455H62.6733V8.51989H62.7543C62.9048 8.1733 63.1406 7.89489 63.4616 7.68466C63.7855 7.47443 64.1932 7.36932 64.6847 7.36932C65.1307 7.36932 65.5213 7.46307 65.8565 7.65057C66.1918 7.83523 66.4517 8.1108 66.6364 8.47727C66.821 8.84375 66.9134 9.29687 66.9134 9.83665V14H65.6392V9.99006C65.6392 9.51562 65.5156 9.14489 65.2685 8.87784C65.0213 8.60795 64.6818 8.47301 64.25 8.47301C63.9545 8.47301 63.6918 8.53693 63.4616 8.66477C63.2344 8.79261 63.054 8.98011 62.9205 9.22727C62.7898 9.47159 62.7244 9.76705 62.7244 10.1136ZM69.8963 5.27273V14H68.6222V5.27273H69.8963ZM74.3675 14.1321C73.7539 14.1321 73.2184 13.9915 72.761 13.7102C72.3036 13.429 71.9485 13.0355 71.6957 12.5298C71.4428 12.0241 71.3164 11.4332 71.3164 10.7571C71.3164 10.0781 71.4428 9.48437 71.6957 8.97585C71.9485 8.46733 72.3036 8.07244 72.761 7.79119C73.2184 7.50994 73.7539 7.36932 74.3675 7.36932C74.9812 7.36932 75.5167 7.50994 75.9741 7.79119C76.4315 8.07244 76.7866 8.46733 77.0394 8.97585C77.2923 9.48437 77.4187 10.0781 77.4187 10.7571C77.4187 11.4332 77.2923 12.0241 77.0394 12.5298C76.7866 13.0355 76.4315 13.429 75.9741 13.7102C75.5167 13.9915 74.9812 14.1321 74.3675 14.1321ZM74.3718 13.0625C74.7695 13.0625 75.0991 12.9574 75.3604 12.7472C75.6218 12.5369 75.815 12.2571 75.94 11.9077C76.0678 11.5582 76.1317 11.1733 76.1317 10.7528C76.1317 10.3352 76.0678 9.9517 75.94 9.60227C75.815 9.25 75.6218 8.96733 75.3604 8.75426C75.0991 8.54119 74.7695 8.43466 74.3718 8.43466C73.9712 8.43466 73.6388 8.54119 73.3746 8.75426C73.1133 8.96733 72.9187 9.25 72.7908 9.60227C72.6658 9.9517 72.6033 10.3352 72.6033 10.7528C72.6033 11.1733 72.6658 11.5582 72.7908 11.9077C72.9187 12.2571 73.1133 12.5369 73.3746 12.7472C73.6388 12.9574 73.9712 13.0625 74.3718 13.0625ZM80.7457 14.1449C80.331 14.1449 79.956 14.0682 79.6207 13.9148C79.2855 13.7585 79.0199 13.5327 78.8239 13.2372C78.6307 12.9418 78.5341 12.5795 78.5341 12.1506C78.5341 11.7812 78.6051 11.4773 78.7472 11.2386C78.8892 11 79.081 10.8111 79.3224 10.6719C79.5639 10.5327 79.8338 10.4276 80.1321 10.3565C80.4304 10.2855 80.7344 10.2315 81.044 10.1946C81.4361 10.1491 81.7543 10.1122 81.9986 10.0838C82.2429 10.0526 82.4205 10.0028 82.5312 9.93466C82.642 9.86648 82.6974 9.75568 82.6974 9.60227V9.57244C82.6974 9.20028 82.5923 8.91193 82.3821 8.70739C82.1747 8.50284 81.8651 8.40057 81.4531 8.40057C81.0241 8.40057 80.6861 8.49574 80.4389 8.68608C80.1946 8.87358 80.0256 9.08239 79.9318 9.3125L78.7344 9.03977C78.8764 8.64205 79.0838 8.32102 79.3565 8.0767C79.6321 7.82955 79.9489 7.65057 80.3068 7.53977C80.6648 7.42614 81.0412 7.36932 81.4361 7.36932C81.6974 7.36932 81.9744 7.40057 82.267 7.46307C82.5625 7.52273 82.8381 7.63352 83.0938 7.79545C83.3523 7.95739 83.5639 8.18892 83.7287 8.49006C83.8935 8.78835 83.9759 9.17614 83.9759 9.65341V14H82.7315V13.1051H82.6804C82.598 13.2699 82.4744 13.4318 82.3097 13.5909C82.1449 13.75 81.9332 13.8821 81.6747 13.9872C81.4162 14.0923 81.1065 14.1449 80.7457 14.1449ZM81.0227 13.1222C81.375 13.1222 81.6761 13.0526 81.9261 12.9134C82.179 12.7741 82.3707 12.5923 82.5014 12.3679C82.6349 12.1406 82.7017 11.8977 82.7017 11.6392V10.7955C82.6563 10.8409 82.5682 10.8835 82.4375 10.9233C82.3097 10.9602 82.1634 10.9929 81.9986 11.0213C81.8338 11.0469 81.6733 11.071 81.517 11.0938C81.3608 11.1136 81.2301 11.1307 81.125 11.1449C80.8778 11.1761 80.652 11.2287 80.4474 11.3026C80.2457 11.3764 80.0838 11.483 79.9616 11.6222C79.8423 11.7585 79.7827 11.9403 79.7827 12.1676C79.7827 12.483 79.8991 12.7216 80.1321 12.8835C80.3651 13.0426 80.6619 13.1222 81.0227 13.1222ZM88.1232 14.1278C87.5948 14.1278 87.1232 13.9929 86.7085 13.723C86.2965 13.4503 85.9727 13.0625 85.7369 12.5597C85.5039 12.054 85.3874 11.4474 85.3874 10.7401C85.3874 10.0327 85.5053 9.42756 85.7411 8.92472C85.9798 8.42187 86.3065 8.03693 86.7212 7.76989C87.136 7.50284 87.6062 7.36932 88.1317 7.36932C88.538 7.36932 88.8647 7.4375 89.1119 7.57386C89.3619 7.70739 89.555 7.86364 89.6914 8.04261C89.8306 8.22159 89.9386 8.37926 90.0153 8.51562H90.092V5.27273H91.3661V14H90.1218V12.9815H90.0153C89.9386 13.1207 89.8278 13.2798 89.6829 13.4588C89.5408 13.6378 89.3448 13.794 89.0948 13.9276C88.8448 14.0611 88.521 14.1278 88.1232 14.1278ZM88.4045 13.0412C88.771 13.0412 89.0806 12.9446 89.3335 12.7514C89.5891 12.5554 89.7823 12.2841 89.913 11.9375C90.0465 11.5909 90.1133 11.1875 90.1133 10.7273C90.1133 10.2727 90.0479 9.875 89.9173 9.53409C89.7866 9.19318 89.5948 8.92756 89.342 8.73722C89.0891 8.54687 88.7766 8.4517 88.4045 8.4517C88.021 8.4517 87.7013 8.55114 87.4457 8.75C87.19 8.94886 86.9968 9.22017 86.8661 9.56392C86.7383 9.90767 86.6744 10.2955 86.6744 10.7273C86.6744 11.1648 86.7397 11.5582 86.8704 11.9077C87.0011 12.2571 87.1942 12.5341 87.4499 12.7386C87.7085 12.9403 88.0266 13.0412 88.4045 13.0412ZM99.1175 14.1321C98.5039 14.1321 97.9684 13.9915 97.511 13.7102C97.0536 13.429 96.6985 13.0355 96.4457 12.5298C96.1928 12.0241 96.0664 11.4332 96.0664 10.7571C96.0664 10.0781 96.1928 9.48437 96.4457 8.97585C96.6985 8.46733 97.0536 8.07244 97.511 7.79119C97.9684 7.50994 98.5039 7.36932 99.1175 7.36932C99.7312 7.36932 100.267 7.50994 100.724 7.79119C101.181 8.07244 101.537 8.46733 101.789 8.97585C102.042 9.48437 102.169 10.0781 102.169 10.7571C102.169 11.4332 102.042 12.0241 101.789 12.5298C101.537 13.0355 101.181 13.429 100.724 13.7102C100.267 13.9915 99.7312 14.1321 99.1175 14.1321ZM99.1218 13.0625C99.5195 13.0625 99.8491 12.9574 100.11 12.7472C100.372 12.5369 100.565 12.2571 100.69 11.9077C100.818 11.5582 100.882 11.1733 100.882 10.7528C100.882 10.3352 100.818 9.9517 100.69 9.60227C100.565 9.25 100.372 8.96733 100.11 8.75426C99.8491 8.54119 99.5195 8.43466 99.1218 8.43466C98.7212 8.43466 98.3888 8.54119 98.1246 8.75426C97.8633 8.96733 97.6687 9.25 97.5408 9.60227C97.4158 9.9517 97.3533 10.3352 97.3533 10.7528C97.3533 11.1733 97.4158 11.5582 97.5408 11.9077C97.6687 12.2571 97.8633 12.5369 98.1246 12.7472C98.3888 12.9574 98.7212 13.0625 99.1218 13.0625ZM104.865 10.1136V14H103.591V7.45455H104.814V8.51989H104.895C105.045 8.1733 105.281 7.89489 105.602 7.68466C105.926 7.47443 106.334 7.36932 106.825 7.36932C107.271 7.36932 107.662 7.46307 107.997 7.65057C108.332 7.83523 108.592 8.1108 108.777 8.47727C108.962 8.84375 109.054 9.29687 109.054 9.83665V14H107.78V9.99006C107.78 9.51562 107.656 9.14489 107.409 8.87784C107.162 8.60795 106.822 8.47301 106.391 8.47301C106.095 8.47301 105.832 8.53693 105.602 8.66477C105.375 8.79261 105.195 8.98011 105.061 9.22727C104.93 9.47159 104.865 9.76705 104.865 10.1136ZM116.994 7.45455V8.47727H113.419V7.45455H116.994ZM114.377 5.88636H115.652V12.0781C115.652 12.3253 115.689 12.5114 115.762 12.6364C115.836 12.7585 115.931 12.8423 116.048 12.8878C116.167 12.9304 116.297 12.9517 116.436 12.9517C116.538 12.9517 116.627 12.9446 116.704 12.9304C116.781 12.9162 116.841 12.9048 116.883 12.8963L117.113 13.9489C117.039 13.9773 116.934 14.0057 116.798 14.0341C116.662 14.0653 116.491 14.0824 116.287 14.0852C115.951 14.0909 115.639 14.0312 115.349 13.9062C115.059 13.7812 114.825 13.5881 114.646 13.3267C114.467 13.0653 114.377 12.7372 114.377 12.3423V5.88636ZM119.818 10.1136V14H118.544V5.27273H119.801V8.51989H119.882C120.036 8.16761 120.27 7.88778 120.585 7.6804C120.901 7.47301 121.313 7.36932 121.821 7.36932C122.27 7.36932 122.662 7.46165 122.997 7.64631C123.335 7.83097 123.597 8.10653 123.781 8.47301C123.969 8.83665 124.062 9.29119 124.062 9.83665V14H122.788V9.99006C122.788 9.50994 122.665 9.13778 122.418 8.87358C122.17 8.60653 121.827 8.47301 121.386 8.47301C121.085 8.47301 120.815 8.53693 120.577 8.66477C120.341 8.79261 120.155 8.98011 120.018 9.22727C119.885 9.47159 119.818 9.76705 119.818 10.1136ZM128.584 14.1321C127.939 14.1321 127.384 13.9943 126.918 13.7188C126.455 13.4403 126.097 13.0497 125.844 12.5469C125.594 12.0412 125.469 11.4489 125.469 10.7699C125.469 10.0994 125.594 9.50852 125.844 8.99716C126.097 8.4858 126.449 8.08665 126.901 7.79972C127.355 7.51278 127.886 7.36932 128.494 7.36932C128.864 7.36932 129.222 7.4304 129.568 7.55256C129.915 7.67472 130.226 7.86648 130.501 8.12784C130.777 8.3892 130.994 8.72869 131.153 9.14631C131.313 9.56108 131.392 10.0653 131.392 10.6591V11.1108H126.189V10.1562H130.143C130.143 9.82102 130.075 9.52415 129.939 9.26562C129.803 9.00426 129.611 8.7983 129.364 8.64773C129.119 8.49716 128.832 8.42188 128.503 8.42188C128.145 8.42188 127.832 8.50994 127.565 8.68608C127.301 8.85937 127.097 9.08665 126.952 9.3679C126.81 9.64631 126.739 9.94886 126.739 10.2756V11.0213C126.739 11.4588 126.815 11.831 126.969 12.1378C127.125 12.4446 127.342 12.679 127.621 12.8409C127.899 13 128.224 13.0795 128.597 13.0795C128.838 13.0795 129.058 13.0455 129.257 12.9773C129.456 12.9062 129.628 12.8011 129.773 12.6619C129.918 12.5227 130.028 12.3509 130.105 12.1463L131.311 12.3636C131.214 12.7187 131.041 13.0298 130.791 13.2969C130.544 13.5611 130.233 13.767 129.858 13.9148C129.486 14.0597 129.061 14.1321 128.584 14.1321ZM37.4769 32H35.3675L39.2081 21.0909H41.6477L45.4936 32H43.3842L40.4705 23.3281H40.3853L37.4769 32ZM37.5462 27.7227H43.299V29.31H37.5462V27.7227ZM46.8453 35.0682V23.8182H48.7416V25.1712H48.8534C48.9529 24.9723 49.0931 24.761 49.2742 24.5373C49.4553 24.31 49.7004 24.1165 50.0093 23.9567C50.3183 23.7933 50.7124 23.7116 51.1919 23.7116C51.824 23.7116 52.3939 23.8732 52.9017 24.1964C53.4131 24.516 53.8179 24.9901 54.1162 25.6186C54.4181 26.2436 54.569 27.0107 54.569 27.9197C54.569 28.8182 54.4216 29.5817 54.1269 30.2102C53.8321 30.8388 53.4308 31.3182 52.923 31.6484C52.4152 31.9787 51.8399 32.1438 51.1972 32.1438C50.7284 32.1438 50.3396 32.0657 50.0306 31.9094C49.7217 31.7532 49.4731 31.565 49.2849 31.3448C49.1002 31.1211 48.9564 30.9098 48.8534 30.7109H48.7735V35.0682H46.8453ZM48.7362 27.9091C48.7362 28.4382 48.8108 28.9016 48.96 29.2994C49.1127 29.6971 49.3311 30.0078 49.6151 30.2315C49.9028 30.4517 50.2508 30.5618 50.6592 30.5618C51.0853 30.5618 51.4422 30.4482 51.7298 30.2209C52.0175 29.9901 52.2341 29.6758 52.3797 29.2781C52.5289 28.8768 52.6034 28.4205 52.6034 27.9091C52.6034 27.4013 52.5306 26.9503 52.385 26.5561C52.2394 26.1619 52.0228 25.853 51.7352 25.6293C51.4475 25.4055 51.0889 25.2937 50.6592 25.2937C50.2472 25.2937 49.8975 25.402 49.6098 25.6186C49.3222 25.8352 49.1038 26.1388 48.9546 26.5295C48.809 26.9201 48.7362 27.38 48.7362 27.9091ZM56.2203 35.0682V23.8182H58.1166V25.1712H58.2284C58.3279 24.9723 58.4681 24.761 58.6492 24.5373C58.8303 24.31 59.0754 24.1165 59.3843 23.9567C59.6933 23.7933 60.0874 23.7116 60.5669 23.7116C61.199 23.7116 61.7689 23.8732 62.2767 24.1964C62.7881 24.516 63.1929 24.9901 63.4912 25.6186C63.7931 26.2436 63.944 27.0107 63.944 27.9197C63.944 28.8182 63.7966 29.5817 63.5019 30.2102C63.2071 30.8388 62.8058 31.3182 62.298 31.6484C61.7902 31.9787 61.2149 32.1438 60.5722 32.1438C60.1034 32.1438 59.7146 32.0657 59.4056 31.9094C59.0967 31.7532 58.8481 31.565 58.6599 31.3448C58.4752 31.1211 58.3314 30.9098 58.2284 30.7109H58.1485V35.0682H56.2203ZM58.1112 27.9091C58.1112 28.4382 58.1858 28.9016 58.335 29.2994C58.4877 29.6971 58.7061 30.0078 58.9901 30.2315C59.2778 30.4517 59.6258 30.5618 60.0342 30.5618C60.4603 30.5618 60.8172 30.4482 61.1048 30.2209C61.3925 29.9901 61.6091 29.6758 61.7547 29.2781C61.9039 28.8768 61.9784 28.4205 61.9784 27.9091C61.9784 27.4013 61.9056 26.9503 61.76 26.5561C61.6144 26.1619 61.3978 25.853 61.1102 25.6293C60.8225 25.4055 60.4639 25.2937 60.0342 25.2937C59.6222 25.2937 59.2725 25.402 58.9848 25.6186C58.6972 25.8352 58.4788 26.1388 58.3296 26.5295C58.184 26.9201 58.1112 27.38 58.1112 27.9091ZM75.3298 24.0898C75.2801 23.6246 75.0706 23.2624 74.7013 23.0032C74.3355 22.744 73.8596 22.6143 73.2737 22.6143C72.8618 22.6143 72.5084 22.6765 72.2137 22.8008C71.9189 22.9251 71.6934 23.0937 71.5372 23.3068C71.3809 23.5199 71.301 23.7631 71.2975 24.0366C71.2975 24.2638 71.349 24.4609 71.452 24.6278C71.5585 24.7947 71.7023 24.9368 71.8834 25.054C72.0645 25.1676 72.2652 25.2635 72.4854 25.3416C72.7055 25.4197 72.9275 25.4854 73.1512 25.5387L74.1739 25.7944C74.5858 25.8903 74.9818 26.0199 75.3618 26.1832C75.7453 26.3466 76.088 26.5526 76.3898 26.8011C76.6952 27.0497 76.9367 27.3498 77.1143 27.7013C77.2918 28.0529 77.3806 28.4648 77.3806 28.9371C77.3806 29.5763 77.2172 30.1392 76.8905 30.6257C76.5638 31.1087 76.0915 31.4869 75.4736 31.7603C74.8593 32.0302 74.1153 32.1651 73.2417 32.1651C72.393 32.1651 71.6562 32.0337 71.0312 31.771C70.4097 31.5082 69.9232 31.1246 69.5716 30.6204C69.2236 30.1161 69.0354 29.5018 69.007 28.7773H70.9513C70.9797 29.1573 71.0969 29.4734 71.3028 29.7255C71.5088 29.9776 71.7769 30.1658 72.1072 30.2901C72.441 30.4144 72.8138 30.4766 73.2258 30.4766C73.6555 30.4766 74.0319 30.4126 74.355 30.2848C74.6817 30.1534 74.9374 29.9723 75.1221 29.7415C75.3067 29.5071 75.4008 29.2337 75.4044 28.9212C75.4008 28.6371 75.3174 28.4027 75.154 28.218C74.9907 28.0298 74.7616 27.8736 74.4669 27.7493C74.1757 27.6214 73.8348 27.5078 73.4442 27.4084L72.203 27.0888C71.3046 26.858 70.5944 26.5082 70.0724 26.0394C69.5539 25.5671 69.2947 24.9403 69.2947 24.1591C69.2947 23.5163 69.4687 22.9535 69.8167 22.4705C70.1682 21.9876 70.6459 21.6129 71.2496 21.3466C71.8532 21.0767 72.5368 20.9418 73.3003 20.9418C74.0745 20.9418 74.7528 21.0767 75.3351 21.3466C75.9211 21.6129 76.3809 21.984 76.7148 22.4599C77.0486 22.9322 77.2208 23.4755 77.2314 24.0898H75.3298ZM83.1428 23.8182V25.3097H78.4393V23.8182H83.1428ZM79.6005 21.858H81.5288V29.5391C81.5288 29.7983 81.5678 29.9972 81.646 30.1357C81.7276 30.2706 81.8342 30.3629 81.9656 30.4126C82.0969 30.4624 82.2425 30.4872 82.4023 30.4872C82.5231 30.4872 82.6332 30.4783 82.7326 30.4606C82.8356 30.4428 82.9137 30.4268 82.967 30.4126L83.2919 31.9201C83.1889 31.9556 83.0415 31.9947 82.8498 32.0373C82.6616 32.0799 82.4308 32.1048 82.1573 32.1119C81.6744 32.1261 81.2393 32.0533 80.8523 31.8935C80.4652 31.7301 80.158 31.478 79.9308 31.1371C79.707 30.7962 79.5969 30.37 79.6005 29.8587V21.858ZM88.2364 32.1598C87.4374 32.1598 86.7449 31.984 86.159 31.6325C85.5731 31.2809 85.1185 30.7891 84.7954 30.157C84.4758 29.5249 84.316 28.7862 84.316 27.9411C84.316 27.0959 84.4758 26.3555 84.7954 25.7198C85.1185 25.0842 85.5731 24.5906 86.159 24.239C86.7449 23.8874 87.4374 23.7116 88.2364 23.7116C89.0354 23.7116 89.7279 23.8874 90.3138 24.239C90.8998 24.5906 91.3525 25.0842 91.6721 25.7198C91.9953 26.3555 92.1569 27.0959 92.1569 27.9411C92.1569 28.7862 91.9953 29.5249 91.6721 30.157C91.3525 30.7891 90.8998 31.2809 90.3138 31.6325C89.7279 31.984 89.0354 32.1598 88.2364 32.1598ZM88.2471 30.6151C88.6803 30.6151 89.0425 30.4961 89.3337 30.2582C89.6249 30.0167 89.8415 29.6935 89.9836 29.2887C90.1292 28.8839 90.202 28.4329 90.202 27.9357C90.202 27.435 90.1292 26.9822 89.9836 26.5774C89.8415 26.169 89.6249 25.8441 89.3337 25.6026C89.0425 25.3612 88.6803 25.2404 88.2471 25.2404C87.8032 25.2404 87.4339 25.3612 87.1391 25.6026C86.8479 25.8441 86.6295 26.169 86.4839 26.5774C86.3419 26.9822 86.2709 27.435 86.2709 27.9357C86.2709 28.4329 86.3419 28.8839 86.4839 29.2887C86.6295 29.6935 86.8479 30.0167 87.1391 30.2582C87.4339 30.4961 87.8032 30.6151 88.2471 30.6151ZM93.7935 32V23.8182H95.6632V25.1818H95.7484C95.8975 24.7095 96.1532 24.3455 96.5154 24.0898C96.8812 23.8306 97.2985 23.701 97.7672 23.701C97.8738 23.701 97.9927 23.7063 98.1241 23.717C98.2591 23.7241 98.3709 23.7365 98.4597 23.7543V25.5281C98.378 25.4996 98.2484 25.4748 98.0708 25.4535C97.8968 25.4286 97.7282 25.4162 97.5648 25.4162C97.2132 25.4162 96.8972 25.4925 96.6167 25.6452C96.3397 25.7944 96.1213 26.0021 95.9615 26.2685C95.8017 26.5348 95.7218 26.842 95.7218 27.19V32H93.7935ZM103.026 32.1598C102.206 32.1598 101.497 31.9893 100.901 31.6484C100.308 31.304 99.8513 30.8175 99.5317 30.1889C99.2121 29.5568 99.0523 28.8129 99.0523 27.957C99.0523 27.1154 99.2121 26.3768 99.5317 25.7411C99.8548 25.1019 100.306 24.6048 100.885 24.2496C101.464 23.891 102.144 23.7116 102.925 23.7116C103.429 23.7116 103.905 23.7933 104.352 23.9567C104.803 24.1165 105.201 24.3651 105.546 24.7024C105.894 25.0398 106.167 25.4695 106.366 25.9915C106.565 26.5099 106.664 27.1278 106.664 27.8452V28.4364H99.9578V27.1367H104.816C104.812 26.7674 104.732 26.4389 104.576 26.1513C104.42 25.8601 104.201 25.631 103.921 25.4641C103.644 25.2972 103.321 25.2138 102.951 25.2138C102.557 25.2138 102.211 25.3097 101.913 25.5014C101.614 25.6896 101.382 25.9382 101.215 26.2472C101.052 26.5526 100.968 26.8881 100.965 27.2539V28.3885C100.965 28.8643 101.052 29.2727 101.226 29.6136C101.4 29.951 101.643 30.2102 101.955 30.3913C102.268 30.5689 102.634 30.6577 103.053 30.6577C103.333 30.6577 103.587 30.6186 103.814 30.5405C104.042 30.4588 104.239 30.3398 104.406 30.1836C104.573 30.0273 104.699 29.8338 104.784 29.603L106.584 29.8054C106.471 30.2812 106.254 30.6967 105.934 31.0518C105.618 31.4034 105.214 31.6768 104.72 31.8722C104.226 32.0639 103.662 32.1598 103.026 32.1598Z" fill="#FFF9F9"/>
<path d="M18.987 6.52365C20.884 4.01224 23.5214 4 23.5214 4C23.5214 4 23.9137 6.36115 22.029 8.63569C20.0168 11.0644 17.7295 10.667 17.7295 10.667C17.7295 10.667 17.3 8.75689 18.987 6.52365V6.52365ZM17.9708 12.321C18.9467 12.321 20.758 10.9735 23.1156 10.9735C27.1739 10.9735 28.7704 13.874 28.7704 13.874C28.7704 13.874 25.6479 15.4775 25.6479 19.3684C25.6479 23.7576 29.5377 25.2703 29.5377 25.2703C29.5377 25.2703 26.8186 32.9574 23.1458 32.9574C21.459 32.9574 20.1475 31.8156 18.3701 31.8156C16.5589 31.8156 14.7614 33 13.5908 33C10.237 33.0001 6 25.7081 6 19.8465C6 14.0795 9.58633 11.0543 12.9502 11.0543C15.1369 11.0543 16.8339 12.321 17.9708 12.321V12.321Z" fill="white"/>
</svg>
