<svg width="140" height="37" viewBox="0 0 140 37" fill="none" xmlns="http://www.w3.org/2000/svg">
<rect width="140" height="37" rx="7" fill="#121212"/>
<path d="M47.8651 8.02983C47.7827 7.77131 47.6719 7.53977 47.5327 7.33523C47.3963 7.12784 47.233 6.9517 47.0426 6.80682C46.8523 6.65909 46.6349 6.54687 46.3906 6.47017C46.1491 6.39347 45.8835 6.35511 45.5938 6.35511C45.1023 6.35511 44.6591 6.48153 44.2642 6.73438C43.8693 6.98722 43.5568 7.35795 43.3267 7.84659C43.0994 8.33239 42.9858 8.92756 42.9858 9.6321C42.9858 10.3395 43.1009 10.9375 43.331 11.4261C43.5611 11.9148 43.8764 12.2855 44.277 12.5384C44.6776 12.7912 45.1335 12.9176 45.6449 12.9176C46.1193 12.9176 46.5327 12.821 46.8849 12.6278C47.2401 12.4347 47.5142 12.1619 47.7074 11.8097C47.9034 11.4545 48.0014 11.0369 48.0014 10.5568L48.3423 10.6207H45.8452V9.53409H49.2756V10.527C49.2756 11.2599 49.1193 11.8963 48.8068 12.4361C48.4972 12.973 48.0682 13.3878 47.5199 13.6804C46.9744 13.973 46.3494 14.1193 45.6449 14.1193C44.8551 14.1193 44.1619 13.9375 43.5653 13.5739C42.9716 13.2102 42.5085 12.6946 42.1761 12.027C41.8438 11.3565 41.6776 10.5611 41.6776 9.64062C41.6776 8.9446 41.7741 8.3196 41.9673 7.76562C42.1605 7.21165 42.4318 6.74148 42.7812 6.35511C43.1335 5.96591 43.5469 5.66903 44.0213 5.46449C44.4986 5.2571 45.0199 5.15341 45.5852 5.15341C46.0568 5.15341 46.4957 5.22301 46.902 5.36222C47.3111 5.50142 47.6747 5.69886 47.9929 5.95455C48.3139 6.21023 48.5795 6.5142 48.7898 6.86648C49 7.21591 49.142 7.60369 49.2159 8.02983H47.8651ZM50.9471 14V5.27273H56.4187V6.40625H52.2638V9.06534H56.1332V10.1946H52.2638V12.8665H56.4698V14H50.9471ZM57.7472 6.40625V5.27273H64.5014V6.40625H61.7784V14H60.4659V6.40625H57.7472ZM70.4865 5.27273V14H69.1697V5.27273H70.4865ZM71.9737 6.40625V5.27273H78.728V6.40625H76.005V14H74.6925V6.40625H71.9737ZM90.9773 9.63636C90.9773 10.5682 90.8068 11.3693 90.4659 12.0398C90.125 12.7074 89.6577 13.2216 89.0639 13.5824C88.473 13.9403 87.8011 14.1193 87.0483 14.1193C86.2926 14.1193 85.6179 13.9403 85.0241 13.5824C84.4332 13.2216 83.9673 12.706 83.6264 12.0355C83.2855 11.3651 83.1151 10.5653 83.1151 9.63636C83.1151 8.70455 83.2855 7.90483 83.6264 7.23722C83.9673 6.56676 84.4332 6.05256 85.0241 5.6946C85.6179 5.33381 86.2926 5.15341 87.0483 5.15341C87.8011 5.15341 88.473 5.33381 89.0639 5.6946C89.6577 6.05256 90.125 6.56676 90.4659 7.23722C90.8068 7.90483 90.9773 8.70455 90.9773 9.63636ZM89.6733 9.63636C89.6733 8.92614 89.5582 8.32812 89.3281 7.84233C89.1009 7.35369 88.7884 6.98438 88.3906 6.73438C87.9957 6.48153 87.5483 6.35511 87.0483 6.35511C86.5455 6.35511 86.0966 6.48153 85.7017 6.73438C85.3068 6.98438 84.9943 7.35369 84.7642 7.84233C84.5369 8.32812 84.4233 8.92614 84.4233 9.63636C84.4233 10.3466 84.5369 10.946 84.7642 11.4347C84.9943 11.9205 85.3068 12.2898 85.7017 12.5426C86.0966 12.7926 86.5455 12.9176 87.0483 12.9176C87.5483 12.9176 87.9957 12.7926 88.3906 12.5426C88.7884 12.2898 89.1009 11.9205 89.3281 11.4347C89.5582 10.946 89.6733 10.3466 89.6733 9.63636ZM99.663 5.27273V14H98.4528L94.0167 7.59943H93.9357V14H92.619V5.27273H93.8377L98.2781 11.6818H98.359V5.27273H99.663ZM49.3842 24.5746C49.2955 24.2869 49.1729 24.0295 49.0167 23.8022C48.864 23.5714 48.6793 23.3743 48.4627 23.2109C48.2496 23.0476 48.0046 22.9251 47.7276 22.8434C47.4506 22.7582 47.1488 22.7156 46.8221 22.7156C46.2362 22.7156 45.7141 22.8629 45.256 23.1577C44.7979 23.4524 44.4375 23.8857 44.1747 24.4574C43.9155 25.0256 43.7859 25.718 43.7859 26.5348C43.7859 27.3587 43.9155 28.0565 44.1747 28.6282C44.4339 29.1999 44.7944 29.6349 45.256 29.9332C45.7177 30.228 46.2539 30.3754 46.8647 30.3754C47.4187 30.3754 47.8981 30.2688 48.3029 30.0558C48.7113 29.8427 49.0256 29.5408 49.2457 29.1502C49.4659 28.756 49.576 28.2944 49.576 27.7653L50.0234 27.8345H47.0618V26.2898H51.4883V27.6001C51.4883 28.5341 51.2894 29.342 50.8917 30.0238C50.494 30.7056 49.9471 31.2312 49.2511 31.6005C48.555 31.9663 47.756 32.1491 46.854 32.1491C45.8491 32.1491 44.9666 31.9237 44.2067 31.4727C43.4503 31.0181 42.859 30.3736 42.4329 29.5391C42.0103 28.701 41.799 27.7067 41.799 26.5561C41.799 25.6754 41.9233 24.8888 42.1719 24.1964C42.424 23.5039 42.7756 22.9162 43.2266 22.4332C43.6776 21.9467 44.2067 21.5774 44.8139 21.3253C45.4212 21.0696 46.0817 20.9418 46.7955 20.9418C47.3991 20.9418 47.962 21.0305 48.484 21.2081C49.006 21.3821 49.4695 21.6307 49.8743 21.9538C50.2827 22.277 50.6183 22.6605 50.881 23.1044C51.1438 23.5483 51.3161 24.0384 51.3977 24.5746H49.3842ZM56.8829 32.1598C56.0839 32.1598 55.3914 31.984 54.8055 31.6325C54.2195 31.2809 53.765 30.7891 53.4419 30.157C53.1222 29.5249 52.9624 28.7862 52.9624 27.9411C52.9624 27.0959 53.1222 26.3555 53.4419 25.7198C53.765 25.0842 54.2195 24.5906 54.8055 24.239C55.3914 23.8874 56.0839 23.7116 56.8829 23.7116C57.6819 23.7116 58.3744 23.8874 58.9603 24.239C59.5463 24.5906 59.999 25.0842 60.3186 25.7198C60.6418 26.3555 60.8034 27.0959 60.8034 27.9411C60.8034 28.7862 60.6418 29.5249 60.3186 30.157C59.999 30.7891 59.5463 31.2809 58.9603 31.6325C58.3744 31.984 57.6819 32.1598 56.8829 32.1598ZM56.8936 30.6151C57.3268 30.6151 57.689 30.4961 57.9802 30.2582C58.2714 30.0167 58.488 29.6935 58.6301 29.2887C58.7757 28.8839 58.8485 28.4329 58.8485 27.9357C58.8485 27.435 58.7757 26.9822 58.6301 26.5774C58.488 26.169 58.2714 25.8441 57.9802 25.6026C57.689 25.3612 57.3268 25.2404 56.8936 25.2404C56.4497 25.2404 56.0803 25.3612 55.7856 25.6026C55.4944 25.8441 55.276 26.169 55.1304 26.5774C54.9884 26.9822 54.9173 27.435 54.9173 27.9357C54.9173 28.4329 54.9884 28.8839 55.1304 29.2887C55.276 29.6935 55.4944 30.0167 55.7856 30.2582C56.0803 30.4961 56.4497 30.6151 56.8936 30.6151ZM66.0089 32.1598C65.2099 32.1598 64.5174 31.984 63.9315 31.6325C63.3455 31.2809 62.891 30.7891 62.5678 30.157C62.2482 29.5249 62.0884 28.7862 62.0884 27.9411C62.0884 27.0959 62.2482 26.3555 62.5678 25.7198C62.891 25.0842 63.3455 24.5906 63.9315 24.239C64.5174 23.8874 65.2099 23.7116 66.0089 23.7116C66.8079 23.7116 67.5004 23.8874 68.0863 24.239C68.6722 24.5906 69.125 25.0842 69.4446 25.7198C69.7678 26.3555 69.9293 27.0959 69.9293 27.9411C69.9293 28.7862 69.7678 29.5249 69.4446 30.157C69.125 30.7891 68.6722 31.2809 68.0863 31.6325C67.5004 31.984 66.8079 32.1598 66.0089 32.1598ZM66.0195 30.6151C66.4528 30.6151 66.815 30.4961 67.1062 30.2582C67.3974 30.0167 67.614 29.6935 67.756 29.2887C67.9016 28.8839 67.9744 28.4329 67.9744 27.9357C67.9744 27.435 67.9016 26.9822 67.756 26.5774C67.614 26.169 67.3974 25.8441 67.1062 25.6026C66.815 25.3612 66.4528 25.2404 66.0195 25.2404C65.5756 25.2404 65.2063 25.3612 64.9116 25.6026C64.6204 25.8441 64.402 26.169 64.2564 26.5774C64.1143 26.9822 64.0433 27.435 64.0433 27.9357C64.0433 28.4329 64.1143 28.8839 64.2564 29.2887C64.402 29.6935 64.6204 30.0167 64.9116 30.2582C65.2063 30.4961 65.5756 30.6151 66.0195 30.6151ZM75.1242 35.2386C74.4317 35.2386 73.8369 35.1445 73.3398 34.9563C72.8426 34.7717 72.4431 34.5231 72.1412 34.2106C71.8394 33.8981 71.6299 33.5518 71.5127 33.1719L73.2492 32.7511C73.3273 32.9109 73.441 33.0689 73.5901 33.2251C73.7393 33.3849 73.9399 33.5163 74.192 33.6193C74.4477 33.7259 74.7691 33.7791 75.1562 33.7791C75.703 33.7791 76.1558 33.646 76.5145 33.3796C76.8731 33.1168 77.0525 32.6836 77.0525 32.0799V30.5298H76.9566C76.8572 30.7287 76.7116 30.9329 76.5198 31.1424C76.3316 31.3519 76.0812 31.5277 75.7687 31.6697C75.4598 31.8118 75.0709 31.8828 74.6022 31.8828C73.9736 31.8828 73.4037 31.7354 72.8923 31.4407C72.3845 31.1424 71.9797 30.6985 71.6778 30.109C71.3795 29.516 71.2304 28.7738 71.2304 27.8825C71.2304 26.984 71.3795 26.2259 71.6778 25.608C71.9797 24.9865 72.3863 24.516 72.8976 24.1964C73.409 23.8732 73.979 23.7116 74.6075 23.7116C75.0869 23.7116 75.4811 23.7933 75.79 23.9567C76.1025 24.1165 76.3511 24.31 76.5358 24.5373C76.7204 24.761 76.8607 24.9723 76.9566 25.1712H77.0631V23.8182H78.9648V32.1332C78.9648 32.8327 78.7979 33.4116 78.464 33.8697C78.1302 34.3278 77.6739 34.6705 77.0951 34.8977C76.5162 35.125 75.8593 35.2386 75.1242 35.2386ZM75.1402 30.37C75.5486 30.37 75.8966 30.2706 76.1842 30.0717C76.4719 29.8729 76.6903 29.587 76.8394 29.2141C76.9885 28.8413 77.0631 28.3938 77.0631 27.8718C77.0631 27.3569 76.9885 26.9059 76.8394 26.5188C76.6938 26.1317 76.4772 25.8317 76.1895 25.6186C75.9055 25.402 75.5557 25.2937 75.1402 25.2937C74.7105 25.2937 74.3518 25.4055 74.0642 25.6293C73.7765 25.853 73.5599 26.1602 73.4143 26.5508C73.2687 26.9379 73.1959 27.3782 73.1959 27.8718C73.1959 28.3725 73.2687 28.8111 73.4143 29.1875C73.5635 29.5604 73.7819 29.8516 74.0695 30.0611C74.3607 30.267 74.7176 30.37 75.1402 30.37ZM82.8692 21.0909V32H80.941V21.0909H82.8692ZM88.4743 32.1598C87.6539 32.1598 86.9455 31.9893 86.3489 31.6484C85.7559 31.304 85.2995 30.8175 84.9799 30.1889C84.6603 29.5568 84.5005 28.8129 84.5005 27.957C84.5005 27.1154 84.6603 26.3768 84.9799 25.7411C85.3031 25.1019 85.7541 24.6048 86.3329 24.2496C86.9118 23.891 87.5918 23.7116 88.373 23.7116C88.8773 23.7116 89.3532 23.7933 89.8006 23.9567C90.2516 24.1165 90.6493 24.3651 90.9938 24.7024C91.3418 25.0398 91.6152 25.4695 91.8141 25.9915C92.013 26.5099 92.1124 27.1278 92.1124 27.8452V28.4364H85.4061V27.1367H90.264C90.2605 26.7674 90.1806 26.4389 90.0243 26.1513C89.8681 25.8601 89.6497 25.631 89.3691 25.4641C89.0922 25.2972 88.769 25.2138 88.3997 25.2138C88.0055 25.2138 87.6593 25.3097 87.361 25.5014C87.0627 25.6896 86.8301 25.9382 86.6632 26.2472C86.4998 26.5526 86.4164 26.8881 86.4128 27.2539V28.3885C86.4128 28.8643 86.4998 29.2727 86.6738 29.6136C86.8478 29.951 87.0911 30.2102 87.4036 30.3913C87.7161 30.5689 88.0819 30.6577 88.5009 30.6577C88.7814 30.6577 89.0353 30.6186 89.2626 30.5405C89.4899 30.4588 89.687 30.3398 89.8539 30.1836C90.0208 30.0273 90.1468 29.8338 90.2321 29.603L92.0325 29.8054C91.9189 30.2812 91.7022 30.6967 91.3826 31.0518C91.0666 31.4034 90.6618 31.6768 90.1681 31.8722C89.6745 32.0639 89.1099 32.1598 88.4743 32.1598ZM97.5496 32V21.0909H101.641C102.479 21.0909 103.182 21.2472 103.75 21.5597C104.322 21.8722 104.753 22.3018 105.044 22.8487C105.339 23.392 105.486 24.0099 105.486 24.7024C105.486 25.402 105.339 26.0234 105.044 26.5668C104.75 27.1101 104.315 27.538 103.739 27.8505C103.164 28.1594 102.456 28.3139 101.614 28.3139H98.9026V26.6893H101.348C101.838 26.6893 102.239 26.604 102.551 26.4336C102.864 26.2631 103.095 26.0288 103.244 25.7305C103.397 25.4322 103.473 25.0895 103.473 24.7024C103.473 24.3153 103.397 23.9744 103.244 23.6797C103.095 23.3849 102.862 23.1559 102.546 22.9925C102.234 22.8256 101.831 22.7422 101.337 22.7422H99.5258V32H97.5496ZM109.046 21.0909V32H107.118V21.0909H109.046ZM113.383 32.1651C112.865 32.1651 112.398 32.0728 111.982 31.8881C111.57 31.6999 111.244 31.4229 111.002 31.0572C110.764 30.6914 110.645 30.2404 110.645 29.7042C110.645 29.2425 110.731 28.8608 110.901 28.5589C111.071 28.2571 111.304 28.0156 111.599 27.8345C111.894 27.6534 112.226 27.5167 112.595 27.4244C112.968 27.3285 113.353 27.2592 113.751 27.2166C114.23 27.1669 114.619 27.1225 114.917 27.0835C115.216 27.0408 115.432 26.9769 115.567 26.8917C115.706 26.8029 115.775 26.6662 115.775 26.4815V26.4496C115.775 26.0483 115.656 25.7376 115.418 25.5174C115.18 25.2972 114.837 25.1871 114.39 25.1871C113.918 25.1871 113.543 25.2901 113.266 25.4961C112.993 25.7021 112.808 25.9453 112.712 26.2259L110.912 25.9702C111.054 25.473 111.288 25.0575 111.615 24.7237C111.941 24.3864 112.341 24.1342 112.813 23.9673C113.286 23.7969 113.808 23.7116 114.379 23.7116C114.774 23.7116 115.166 23.7578 115.557 23.8501C115.947 23.9425 116.304 24.0952 116.627 24.3082C116.95 24.5178 117.21 24.8036 117.405 25.1658C117.604 25.5281 117.703 25.9808 117.703 26.5241V32H115.85V30.8761H115.786C115.668 31.1033 115.503 31.3164 115.29 31.5153C115.081 31.7106 114.816 31.8686 114.497 31.9893C114.18 32.1065 113.809 32.1651 113.383 32.1651ZM113.884 30.7482C114.271 30.7482 114.607 30.6719 114.891 30.5192C115.175 30.3629 115.393 30.157 115.546 29.9013C115.702 29.6456 115.78 29.3668 115.78 29.065V28.1009C115.72 28.1506 115.617 28.1967 115.471 28.2393C115.329 28.282 115.169 28.3192 114.992 28.3512C114.814 28.3832 114.639 28.4116 114.465 28.4364C114.291 28.4613 114.14 28.4826 114.012 28.5004C113.724 28.5394 113.467 28.6033 113.239 28.6921C113.012 28.7809 112.833 28.9052 112.701 29.065C112.57 29.2212 112.504 29.4237 112.504 29.6722C112.504 30.0273 112.634 30.2955 112.893 30.4766C113.152 30.6577 113.483 30.7482 113.884 30.7482ZM120.548 35.0682C120.285 35.0682 120.042 35.0469 119.818 35.0043C119.598 34.9652 119.422 34.919 119.291 34.8658L119.738 33.3636C120.019 33.4453 120.269 33.4844 120.489 33.4808C120.709 33.4773 120.903 33.408 121.07 33.2731C121.24 33.1417 121.384 32.9215 121.501 32.6126L121.666 32.1705L118.699 23.8182H120.745L122.63 29.9972H122.716L124.607 23.8182H126.657L123.381 32.9908C123.229 33.424 123.026 33.7951 122.774 34.104C122.522 34.4165 122.213 34.6545 121.847 34.8178C121.485 34.9847 121.052 35.0682 120.548 35.0682Z" fill="#FFF9F9"/>
<path d="M27.0665 21.3506C30.0336 19.7215 32.283 18.4801 32.4768 18.3836C33.0971 18.0537 33.7375 17.1808 32.4768 16.5027C32.0698 16.2895 29.8783 15.0867 27.0665 13.5356L23.1687 17.4721L27.0665 21.3506Z" fill="#FFD900"/>
<path d="M23.1685 17.472L10.7573 29.9806C11.0486 30.0192 11.3775 29.9421 11.7653 29.7289C12.5794 29.2833 21.2095 24.5703 27.0663 21.3516L23.1685 17.472Z" fill="#F43249"/>
<path d="M23.1685 17.4721L27.0663 13.555C27.0663 13.555 12.6382 5.68115 11.7653 5.21623C11.4364 5.02138 11.0679 4.96351 10.738 5.02138L23.1685 17.4721Z" fill="#00EE76"/>
<path d="M23.1687 17.4721L10.7382 5.02136C10.2337 5.13808 9.80737 5.58371 9.80737 6.49523V28.5068C9.80737 29.3412 10.1373 29.9421 10.7575 30L23.1687 17.4721Z" fill="#00D3FF"/>
</svg>
