<svg width="35" height="30" viewBox="0 0 35 30" fill="none" xmlns="http://www.w3.org/2000/svg">
<mask id="mask0_141_25" style="mask-type:luminance" maskUnits="userSpaceOnUse" x="0" y="4" width="35" height="22">
<path d="M32.0827 20.48V9.52C32.0827 8.69188 31.4483 7.96375 30.5113 7.7625C27.9767 7.2175 22.7384 6.25 17.4993 6.25C12.261 6.25 7.02195 7.2175 4.48737 7.7625C3.55039 7.96438 2.91602 8.69188 2.91602 9.52V20.48C2.91602 21.3081 3.55039 22.0363 4.48737 22.2375C7.02195 22.7825 12.2603 23.75 17.4993 23.75C22.7377 23.75 27.9767 22.7825 30.5113 22.2375C31.4483 22.0356 32.0827 21.3081 32.0827 20.48Z" fill="white" stroke="white" stroke-width="4"/>
<path d="M16.4595 18.687C16.3502 18.7525 16.222 18.791 16.0889 18.7984C15.9558 18.8058 15.8229 18.7818 15.7046 18.729C15.5863 18.6761 15.4872 18.5965 15.4181 18.4987C15.349 18.4009 15.3124 18.2888 15.3125 18.1745V11.8257C15.3124 11.7114 15.349 11.5992 15.4181 11.5015C15.4872 11.4037 15.5863 11.3241 15.7046 11.2712C15.8229 11.2184 15.9558 11.1943 16.0889 11.2018C16.222 11.2092 16.3502 11.2477 16.4595 11.3132L21.751 14.4882C21.847 14.5459 21.9254 14.6225 21.9795 14.7116C22.0336 14.8007 22.0618 14.8996 22.0618 15.0001C22.0618 15.1005 22.0336 15.1995 21.9795 15.2886C21.9254 15.3777 21.847 15.4543 21.751 15.512L16.4595 18.687Z" fill="black" stroke="black" stroke-width="4" stroke-linejoin="round"/>
</mask>
<g mask="url(#mask0_141_25)">
<path d="M0 0H35V30H0V0Z" fill="black"/>
</g>
</svg>
